<?xml version="1.0" encoding="utf-8"?>
<!-- Generator: Adobe Illustrator 16.0.0, SVG Export Plug-In . SVG Version: 6.00 Build 0)  -->
<!DOCTYPE svg PUBLIC "-//W3C//DTD SVG 1.1//EN" "http://www.w3.org/Graphics/SVG/1.1/DTD/svg11.dtd">
<svg version="1.1" id="Calque_1" xmlns="http://www.w3.org/2000/svg" xmlns:xlink="http://www.w3.org/1999/xlink" x="0px" y="0px"
	 width="573.9px" height="246px" viewBox="0 0 573.9 246" style="enable-background:new 0 0 573.9 246;" xml:space="preserve">
<style type="text/css">
<![CDATA[
	.st0{fill-rule:evenodd;clip-rule:evenodd;fill:#FFFFFF;}
	.st1{fill-rule:evenodd;clip-rule:evenodd;fill:#3498DB;}
]]>
</style>
<g>
	<g>
		<path class="st0" d="M486.7,207.8c6.6-15.3,12.9-30.1,19.3-44.9c3.2-7.3,6.5-14.6,9.4-22c0.8-2.1,0.9-4.9,0.1-7
			c-7.9-21-16.1-41.9-24.2-62.9c-0.6-1.7-1.2-3.4-2.1-5.9c8.3,0,16-0.2,23.8,0.2c1.1,0,2.6,2.3,3.2,3.8c4.3,10.8,8.5,21.7,12.7,32.5
			c0.4,1,0.9,2,1.8,4.1c4.5-10.4,8.7-19.9,12.8-29.4c4.8-11.2,4.8-11.2,17-11.2c4.3,0,8.5,0,13.5,0c-1,2.6-1.6,4.3-2.3,5.9
			c-9,20.9-18.2,41.8-27,62.9c-1,2.4-1,5.9-0.1,8.4c8.9,23.7,18.2,47.2,27.3,70.8c0.6,1.7,1.2,3.4,2,5.5c-7.9-1.1-15.2-2.4-22.6-3.1
			c-3.6-0.3-5-2.1-6.2-5.2c-4.9-13.2-10.2-26.4-15.5-40.2c-0.9,1.4-1.5,2.2-1.9,3.1c-4.6,10.7-9.4,21.3-13.7,32.1
			c-1.6,4-3.4,5.7-8,4.9C499.8,208.8,493.4,208.5,486.7,207.8z"/>
		<path class="st0" d="M301,143.6c0,3.8,0,6.9,0,10c0,13.5-0.1,27,0.1,40.5c0,3.3-1.1,4.4-4.3,4.3c-6.3-0.2-12.5,0-19.1,0
			c0-44.6,0-88.5,0-133c1.6-0.1,3.2-0.3,4.8-0.3c18.8,0,37.6,0.1,56.4-0.1c3.8,0,5.4,0.9,5.1,5c-0.4,6.1-0.1,12.2-0.1,18.9
			c-14.4,0-28.3,0-42.6,0c0,10.6,0,20.6,0,31.4c10.5,0,21.1,0,31.9,0c0,8,0,15.3,0,23.3C322.6,143.6,312.1,143.6,301,143.6z"/>
		<path class="st0" d="M383.3,177c14,0.8,27.3,1.6,40.8,2.4c0,7.9,0,15.3,0,23.1c-21.4-1.1-42.6-2.2-64.1-3.3
			c-0.1-1.4-0.3-2.6-0.3-3.9c0-41.8,0-83.7-0.1-125.5c0-3.9,0.9-5.5,5-5.2c4.3,0.3,8.7,0.3,13,0c4.4-0.3,6,0.9,5.9,5.7
			c-0.2,33.5-0.1,67-0.1,100.5C383.3,172.8,383.3,174.6,383.3,177z"/>
		<path class="st0" d="M444.8,65.3c7.8,0,15.3,0,23.1,0c0,46.8,0,93.5,0,140.7c-7.8-0.6-15.3-1.2-23.1-1.8
			C444.8,157.8,444.8,111.9,444.8,65.3z"/>
	</g>
	<g>
		<circle class="st0" cx="229.8" cy="30.1" r="13.7"/>
		<path class="st0" d="M123,0C55.1,0,0,55.1,0,123c0,67.9,55.1,123,123,123c42,0,79.1-21.1,101.3-53.2c-0.4-0.1-0.8-0.4-0.9-0.9
			l-8.6-24.3h-26.8l7.2-19.9h12.6l-9.6-27.1l-25,71.4c-0.2,0.6-1,1-1.6,1h-21.9c-1.4,0-2.1-1-1.6-1.9l48.5-125.1
			c0.5-1.3,2.7-1.3,3.2,0l38.8,99.7c4.9-13.3,7.6-27.6,7.6-42.6C246,55.1,190.9,0,123,0z M142.9,88.4h-24.5
			c-15.5-0.6-48.5,1-48.5,40.5c0,30.4,20.6,42.1,48.5,40.6v-28.3v-3.7H93.7V113h24.6h24.5v24.5v3.7v50.2c0,0.6-0.6,1.4-1.8,1.4
			h-20.8c-31.4,0-75-7.2-75-64c0-54.7,43.2-64,75-64h20.8c1.1,0,1.8,0.8,1.8,1.4V88.4z M175.9,43.8c-7.5,0-13.7-6.1-13.7-13.7
			c0-7.5,6.1-13.7,13.7-13.7c7.5,0,13.7,6.1,13.7,13.7C189.6,37.7,183.4,43.8,175.9,43.8z"/>
	</g>
</g>
<g>
	<circle class="st1" cx="229.8" cy="424.6" r="13.7"/>
	<path class="st1" d="M123,394.5c-67.9,0-123,55.1-123,123s55.1,123,123,123c42,0,79.1-21.1,101.3-53.2c-0.4-0.1-0.8-0.4-0.9-0.9
		l-8.6-24.3h-26.8l7.2-19.9h12.6L198,515l-25,71.4c-0.2,0.6-1,1-1.6,1h-21.9c-1.4,0-2.1-1-1.6-1.9l48.5-125.1c0.5-1.3,2.7-1.3,3.2,0
		l38.8,99.7c4.9-13.3,7.6-27.6,7.6-42.6C246,449.5,190.9,394.5,123,394.5z M142.9,482.9h-24.5c-15.5-0.6-48.5,1-48.5,40.5
		c0,30.4,20.6,42.1,48.5,40.6v-28.3V532H93.7v-24.5h24.6h24.5V532v3.7v50.2c0,0.6-0.6,1.4-1.8,1.4h-20.8c-31.4,0-75-7.2-75-64
		c0-54.7,43.2-64,75-64h20.8c1.1,0,1.8,0.8,1.8,1.4V482.9z M175.9,438.2c-7.5,0-13.7-6.1-13.7-13.7c0-7.5,6.1-13.7,13.7-13.7
		c7.5,0,13.7,6.1,13.7,13.7C189.6,432.1,183.4,438.2,175.9,438.2z"/>
</g>
</svg>
