/* XPM */
static char *lol[] = {
/* columns rows colors chars-per-pixel */
"64 64 246 2 ",
"   c #170E15",
".  c #151115",
"X  c #1B1315",
"o  c #1B1319",
"O  c #1E191A",
"+  c #160C0C",
"@  c #231416",
"#  c #221519",
"$  c #241A1B",
"%  c #2B1B1B",
"&  c #2A1716",
"*  c #341B1A",
"=  c #3A1D1C",
"-  c #371916",
";  c #3C221D",
":  c #35221E",
">  c #291E21",
",  c #321D20",
"<  c #2C2121",
"1  c #2F272A",
"2  c #322222",
"3  c #3B2422",
"4  c #3D2B27",
"5  c #411E1A",
"6  c #44221D",
"7  c #49261C",
"8  c #57291C",
"9  c #54240E",
"0  c #69301C",
"q  c #442522",
"w  c #482B25",
"e  c #552D25",
"r  c #49322A",
"t  c #53342D",
"y  c #5C352B",
"u  c #5A3729",
"i  c #493835",
"p  c #5C3B33",
"a  c #563A36",
"s  c #643C2D",
"d  c #683828",
"f  c #793D25",
"g  c #653D35",
"h  c #673327",
"j  c #5B4338",
"k  c #74422D",
"l  c #654B3D",
"z  c #6B4B3D",
"x  c #674435",
"c  c #734533",
"v  c #734D3D",
"b  c #7C4D3B",
"n  c #784835",
"m  c #79513D",
"M  c #6A4633",
"N  c #594644",
"B  c #564E55",
"V  c #6A4D43",
"C  c #674C45",
"Z  c #764E44",
"A  c #6D5244",
"S  c #6E564B",
"D  c #7B5443",
"F  c #73564B",
"G  c #785848",
"H  c #695957",
"J  c #785C54",
"K  c #7A6355",
"L  c #716A6D",
"P  c #813C25",
"I  c #864C37",
"U  c #82533D",
"Y  c #8A533C",
"T  c #95583B",
"R  c #8B482C",
"E  c #A35738",
"W  c #845642",
"Q  c #8C5B43",
"!  c #8B5E4B",
"~  c #845A47",
"^  c #945D46",
"/  c #835D52",
"(  c #A65D46",
")  c #8C624D",
"_  c #86624D",
"`  c #94654B",
"'  c #9A644B",
"]  c #986548",
"[  c #8C6452",
"{  c #8C6B5B",
"}  c #866658",
"|  c #926652",
" . c #946A54",
".. c #9C6D54",
"X. c #9B6E5B",
"o. c #936A5A",
"O. c #9B715E",
"+. c #A6674A",
"@. c #A86D54",
"#. c #B36D57",
"$. c #AB7355",
"%. c #A3745B",
"&. c #AC745C",
"*. c #AD7B5D",
"=. c #A67556",
"-. c #B37C5C",
";. c #B77758",
":. c #B46847",
">. c #846B63",
",. c #896B65",
"<. c #89736A",
"1. c #997464",
"2. c #8D7978",
"3. c #957B75",
"4. c #916E66",
"5. c #A37662",
"6. c #AC7C64",
"7. c #A77966",
"8. c #B77C64",
"9. c #C37958",
"0. c #CD6E55",
"q. c #C37C65",
"w. c #B5805F",
"e. c #9A837D",
"r. c #8B807E",
"t. c #AD8267",
"y. c #B48363",
"u. c #BA8464",
"i. c #BB8B6C",
"p. c #B6866A",
"a. c #A78577",
"s. c #BB8C73",
"d. c #B88A75",
"f. c #BD9277",
"g. c #C28363",
"h. c #C38C6C",
"j. c #C68868",
"k. c #C6916E",
"l. c #CB926E",
"z. c #C28D73",
"x. c #C98775",
"c. c #D28D78",
"v. c #C49374",
"b. c #CA9574",
"n. c #C4957A",
"m. c #C6997C",
"M. c #CC9B7B",
"N. c #CB9678",
"B. c #D39D7C",
"V. c #D49877",
"C. c #D28B6C",
"Z. c #EB956D",
"A. c #EB956B",
"S. c #EC9771",
"D. c #EC9A74",
"F. c #ED9D78",
"G. c #E39776",
"H. c #D9A27E",
"J. c #CEA07F",
"K. c #ECA07B",
"L. c #C0835F",
"P. c #867D83",
"I. c #988686",
"U. c #979193",
"Y. c #A48B86",
"T. c #BA9687",
"R. c #A99996",
"E. c #AD938B",
"W. c #B6A29B",
"Q. c #A29CA1",
"!. c #B8A9A6",
"~. c #BAB3B4",
"^. c #CB9D83",
"/. c #C49A83",
"(. c #D69D84",
"). c #E89E81",
"_. c #CDA184",
"`. c #CCA38B",
"'. c #D4A384",
"]. c #D3A48C",
"[. c #DBA48C",
"{. c #D5A98C",
"}. c #DCAB8C",
"|. c #DAA585",
" X c #DCB18F",
".X c #CCAA96",
"XX c #D3AC93",
"oX c #DBAD93",
"OX c #D8AB95",
"+X c #DDB49B",
"@X c #DAB298",
"#X c #EBAB8C",
"$X c #E6A888",
"%X c #E3AC93",
"&X c #E7AD96",
"*X c #E3B394",
"=X c #EBB495",
"-X c #E3B59B",
";X c #ECB69A",
":X c #E5B99D",
">X c #EBBB9D",
",X c #E6B996",
"<X c #F3B899",
"1X c #F1AA8C",
"2X c #C9B5AC",
"3X c #D9B7A7",
"4X c #C7B9B5",
"5X c #CFB2AA",
"6X c #ECBCA3",
"7X c #E5BBA4",
"8X c #F3BDA4",
"9X c #FAC29D",
"0X c #D8C4B8",
"qX c #CDC0BF",
"wX c #EEC1A7",
"eX c #F3C2A3",
"rX c #F2C4AC",
"tX c #FBC7A9",
"yX c #EBC9B6",
"uX c #F2C6B2",
"iX c #F2CAB5",
"pX c #FBCDB3",
"aX c #F4CCBA",
"sX c #FCD2B9",
"dX c #EED0BF",
"fX c #C0BDC5",
"gX c #CAC4C5",
"hX c #D6CAC8",
"jX c #DBD4D5",
"kX c #E5D3CA",
"lX c #F6D8C7",
"zX c #E8DDD9",
"xX c #F6DDD2",
"cX c #E5CEC6",
"vX c #EAE1DD",
"bX c #F5E4D8",
"nX c #ECE7E7",
"mX c #F5EBE4",
"MX c #F3EEEC",
"NX c #F6EAE4",
"BX c #F7F2EE",
"VX c #FAF6F4",
"CX c #FEFEFE",
"ZX c #F7F6F7",
"AX c #EFEDF1",
"SX c #E7DEE2",
/* pixels */
"CXCXCXCXCXCXCXCXCXCXCXCXCXCXCXCXCXCXCXCXCXCXCXCXZXjXfXU.L L I.fXCXCXCXCXZXCXCXCXCXbXuXyXiXyXMXCXCXCXCXCXCXCXCXVXCXCXCXlXyXaXuXbX",
"CXCXCXCXCXCXCXCXCXCXCXCXCXCXCXCXCXCXCXCXCXCXZXZXU.i 1 > < 2 1 N r.U.gXZXCXCXCXCXCXiXA.D.S.S.NXCXCXCXVXCXCXCXCXCXCXCXCX8XA.S.D.#X",
"CXCXCXCXCXCXCXCXCXCXCXCXCXCXCXCXCXCXCXCXCXZXZXQ.> > 1 > > > < r 4 4 j L ~.ZXZXCXCXuXD.F.F.F.8XdXuXNXCXxXuXiXiXyXiXiXyX#XF.F.F.;X",
"CXCXCXCXCXCXCXCXCXCXCXCXCXCXCXCXCXCXCXCXZXCXfX1 > > > > > $ > ; j j j j B R.nXCXxX$XD.D.F.F.D.S.A.6XNX;XA.D.S.D.S.S.S.F.F.F.F.F.",
"CXCXCXCXCXCXCXCXCXCXCXCXCXCXCXCXCXCXCXCXCXAXB O > O O $ $ > : 4 j j i C C j I.AXnXlX#X;XF.F.F.F.F.F.S.F.F.F.F.F.F.F.F.F.F.F.F.F.",
"CXCXCXCXCXCXCXCXCXCXCXCXCXCXCXCXCXCXCXCXCXQ.% < O O O O & $ : ; j j 4 i j j j W.ZXZX#XuXS.F.F.F.F.F.F.F.F.F.F.F.F.F.F.D.F.F.F.F.",
"CXCXCXCXCXCXCXCXCXCXCXCXCXCXCXCXCXCXCXCXZXH $ $ O o X $ w v `  ._ O.G x j r r C 4XZXlX6XD.F.F.F.F.F.F.D.F.F.F.F.F.F.F.F.F.F.F.F.",
"CXCXCXCXCXCXCXCXCXCXCXCXCXCXCXCXCXCXCXCX~.4 $ O O X & t ) *.i.l.M.{. X_.) ; w p <.nXAX#XS.F.F.F.F.F.F.F.F.F.F.F.F.F.F.F.F.F.F.F.",
"0X0XzXAXBXCXCXCXCXCXCXCXCXCXCXCXCXCXCXCXI.< % @ X * a D [ &.z.c.'.%X7X6X[.y e x a 4XAXkX6X;XS.F.F.F.F.D.F.F.F.F.F.F.F.F.F.F.D.F.",
"m.J.W..X.X0X0XvXBXCXCXCXCXCXCXCXCXCXZXCXI.@ % @ % u z b ! &.s.^.'.&X8X8X6X` h y t H SXZXCXiXS.F.F.F.F.F.F.D.F.F.F.F.F.F.F.F.F.F.",
"T.XX.X.X.X.XXX.X5X0XkXMXCXCXCXCXCXCXCXCXP.@ & & 7 M v ! ..&.h.N.[.%X7XwX8Xz.5 e e 5 Y.ZXCXiXS.F.F.F.F.F.F.F.F.F.F.F.F.F.F.F.F.F.",
"m.@X@X@X+X+X3X+X+X+XXX.X2XqXvXCXCXCXCXAXB * $ * s M g x D X.z.B.OX-X6XuXrX[.q 5 a t C hXCXiXZ.D.F.F.F.F.F.F.F.F.F.F.F.F.F.F.F.F.",
"m.+X@X+X+X7X:XwX+XwXwX@X_.f.e.Y.gXZXCXCXr.$ $ q n M x z Z p / n.(.%X`.T.d.(.g - p p Z 5XZXyX#X&XD.F.F.F.D.F.F.F.F.F.F.F.F.F.F.F.",
"f.W..X+X+X+X+X+X+X:X+X+X{./.p._ j H U.hXR.O & u b M t 4 N ,.z ' V.(.5.4././.w & e t q P.AXbXyXuXS.F.F.F.F.F.F.F.F.F.F.F.F.D.F.F.",
"a.m.XX@X+X X X X@X X X X{.m.p.} p w : 2 < % = k b c t w j 3.V h V.(.Z S 3.T.q - t w , a 2XZXZX6XD.F.F.F.F.F.F.F.F.D.F.F.F.F.F.F.",
"} a._.@X,X{.'. X{. X{.`.f.i.t._ u q < $ # 6 7 b b b ] ..#.#.Z h h.%X@.5.7.d.5 & w r 4 i F hXCXuXS.F.F.F.F.F.F.F.F.F.F.F.D.F.F.F.",
"K O.f.XX:X|.M.H.'.`._.n.p.t.X.~ x t 3 $ # h h W Z I ^ #.q.q.W f q.1X(.).$X(.= # 3 3 a N y R.ZXaXS.F.F.F.F.F.F.F.F.F.F.D.F.F.F.F.",
"G O.d.`.:X-X X3X3X@X.XT.d.%.! b v z p & @ s f W W c I #.x.&.g I q.&X$X&X1X).= # % , i N e R.ZX8XA.F.F.F.F.F.F.F.F.D.F.F.F.F.F.F.",
"F o.t./.@X+XdXCXCXCXVXMXvXkX4XW.4.Z e & # * g ! W f W #.8.f g d 6.%Xq.).8X).= - , , 3 q t 3.AXNXcX<XS.F.F.F.F.F.F.F.F.F.F.D.F.F.",
"S } t.f.{.:X+XMXCXCXCXCXCXCXCXCXZXvXI.g < . & [ Z f ^ ( I g g W 8.&X/.0.1X/.& , , 3 3 3 w t P.AXCXiXS.F.F.D.F.F.F.F.F.F.F.F.F.F.",
"F J 5.d.'.+X-XyXCXCXCXCXCXCXVXCXCXCXjX2.i 2 2 o.I g q.! 8 g ! q.c.OX&Xq.G.#.+ - @ = q 3 a t Z gXCXuXS.F.F.F.F.F.F.F.F.F.F.F.F.F.",
"J J 1.d./.}.:X-XbXCXCXCXCXCXCXCXCXCXVX!.a , % >./ f &.&.h I 7./.OXq.q.x.1X/ + % - = q w a J g 5XCXrXS.K.F.F.F.F.F.F.F.F.F.F.F.F.",
"L G { p.m.`.@X;X7XVXCXCXCXCXCXCXCXCXCXVX4XN + N 7.Z ^ ( g I #.c.(.(.1X[.[.t   # = q q 6 Z P.g 3.AXiXS.F.F.F.F.F.F.F.K.F.F.F.F.F.",
"R.J } 7.n._.}.,X>XkXCXCXCXCXCXCXCXCXCXZXCX!.@ r 7./ n Z W Y 7.q.q.&X;X1Xo.+ # # - 5 5 5 g g 4.4.E.iXA.F.F.F.F.F.F.D.S.D.F.F.D.F.",
"kX>.K 1.s.m.'.@X>X7XBXCXCXCXCXCXCXCXCXCXCXR.* r o.O.W c b $.b.(.&X8X;X5.@   . % # 5 6 e g g J P.{ kXNX>XD.K.F.F.D.aXBX=XS.F.F.F.",
"CXR.J [ t.n.^.}.-X-XdXCXCXCXCXCXCXCXCXZXCXhX4 r [ b Y U n Y p.(.&X&X .& o . + @ , - 6 8 H ,.Z P.[ kXCX6XS.F.F.K.S.xXCX6XS.F.F.F.",
"CXnX>./ 1.s.m.'.%X,X+XNXCXCXCXCXCXCXCXCXCXCXH t O.k k n I Y ' u.(.8.5   & . . . # # - 6 / P.Z Z W zXCXBXiXD.F.F.D.#X=XK.F.F.F.F.",
"CXCX4XJ o.t.f.M.'.*X*X3XBXCXCXCXCXCXCXCXgX2.w l O.b n n T ;.j.l.c.6.* X # o   .   o % e y F J 2.Z 5XCXCXxXS.K.F.F.D.D.F.F.F.F.F.",
"CXCXVXI.[ 7.s.n.m.|.*X*X3XBXCXCXCXCXCX!.>.<., Z  .U U ] =.l.}.}.B.! & # X # . .   o # , 8 g P.P.W o.nXCXZX6XS.F.F.F.F.F.F.F.F.F.",
"CXZXCXjX>.1.d.v.v.M.}.,X%XXXmXCXCXCXSX,.NXjX3 W ` _ ] w.k.H.|.'.v.y & @ $ X . .   o o # 5 h [ J ,.Z E.kXCXrXS.K.F.F.F.F.F.F.F.F.",
"CXCXCXCX!._ 6.v.k.b.{.*X*XH._.vXCXCXgXa.ZXP.r ! U Q ] f.J.H.J.J.p.7 @ , % @ % o o   # # - 6 C C Z ! d.4XvXrXZ.F.F.F.F.F.F.F.F.F.",
"CXCXCXCXMX3.1.s.v.i.N.}.#X$XJ.M.zXZXI.p N 3 D W m m T m.'.J.m.m.6.y - q # % 4 o   o   & 5 5 a p ! T.E.W.CXrXD.F.F.F.D.F.F.F.F.F.",
"CXCXCXCXCXqX} p.l.l.l.H.9XK.V.H.'.!.p 9 W | Q m b c T '.XXn.i.b.=.c - * # @ % o   # # % 5 w 5 = e g G W.nXMXBX6XS.F.F.F.F.F.F.F.",
"CXCXCXCXCXCXY.O.k.J.k.l.H.H.L.V.V.b.Y.{ W ` Q T U b Y (.}.p.v.v.@.Q 8 q * 2 >     * O o * e h d Z h 8 4.hXCXCX>XD.K.F.F.F.F.F.F.",
"CXCXCXCXCXCXhX,.i.J.l.i.l.H.$.L.M.V.XX/.' @.=.-.*.%.@.B.M.u.B.h.;.@.n e & & @ .   @ o o % 5 h :.&.s - y a.AXCX6XS.K.F.F.F.F.F.F.",
"CXCXCXCXCXCXCXY.w.v.i.w.k.J.+.w.l.b.b.h.u.*.$.-.y.u.v.M.M.B.|.M.i.+.f h h = 5 #   o # = % - 5 I V.6.d } T.mXCX6XS.F.F.F.F.F.D.F.",
"CXCXCXCXCXCXCXjXK y.t.t.i.i.] T j.l.J.k.u.-.$.$.*.i.k.m.J.|.H.'.N.6.b 0 b e 8 3 @ @ @ 5 = - 0 R ;.;X}.lXCXZXCXeXS.K.F.F.F.F.F.F.",
"CXCXCXCXCXCXCXCXE.]  .G p.t.Q m $.l.l.f.p.w.t.*.*.u.i.v.M.B.B.^.b.u.` d d y - - o o o = = 8 f R +.,X>XeXxXCXCXwXD.F.F.F.F.F.F.F.",
"CXCXCXCXCXCXCXCXzX{ G m ..t.m M ] u.k.i.y.w.y.y.y.u.i.v.M.B.B.B.b.u.^ Q 9 5 8 s 7 - 6 e e 0 T Y T $X>XwXeXbXCXwXZ.F.F.F.F.F.D.F.",
"CXCXCXCXCXCXCXCXZXW.A l G O.M M U =.y.i.p.y.y.y.y.y.i.v.N.V.H.J.N.u.@.^ f 8 P $.` I d s 0 0 ] R f b.*X>XeXeXmXuXD.$XF.F.F.F.F.F.",
"CXCXCXCXCXCXCXCXCXnX>.A F _ j M m ) =.=.y.y.p.p.p.p.i.v.N.J.J.J.M.b.i.k.k.b.J.J.*.T 8 0 f +.+.0 R h. X*XeXtXpXbXVXxX=X6XS.F.F.F.",
"CXCXCXCXCXCXCXCXCXCX!.F v G j M m m ` =.w.p.i.k.k.k.k.v.b.N.J.m.m.B.b.'. X*X,X*X}.-.k R P E I T ;.u.}.}.*XwXtXpXCXbX6X6XS.F.F.F.",
"CXCXCXCXCXCXCXCXCXCXnX<.A A l v m ) ..w.y.i.m.J.J.J.J.m.m.v.m.b.v.v.M.'.{.}.}.@X,XeXh.E :.T R 9.( w.H.'. X,XeXtXlXVXCX<XZ.D.F.F.",
"CXCXCXCXCXCXCXCXCXCXCX!.A l l G ` ..=.w.i.f.m.J.{. X{._.J.v.f.u.i.k.m.'.|.}. X*X,X:XeX$X;.+.f I :.L.l.B.'.}.,X9XtXlXCXrXF.1X$XF.",
"CXCXCXCXCXCXCXCXCXVXCXhXK l G _ | ..=.w.i.v.J.H.}.*X,X}.^.f.*.=.y.i.n.M.|.{.*X*X:X7XeXeXeX;.E R :.0.L.l.M.'.|.*XeXeXdXmXVXVXVX<X",
"CXCXCXCXCXCXCXCXCXCXCXMXK m _ [  ...*.i.v.J.J. X X>X>X:X^.p.] =.*.u.h.N.M.|.|.%X*X,X<XeXtXV.:.p.h.L.9.u.l.M.^.|.,X9X9XeXbXCXCXeX",
"CXCXCXCXCXCXCXCXCXCXCXBX<.G { _ ` ..w.v.J.`.{. X*X:XeXwX`.O.] ] =.t.i.n.b.B.V.(.G.#X-X8XpX$Xv.nXmX3XL.;.L.l.b.b.|.,X9X9X9XaXBXCX",
"CXCXCXCXCXCXCXCXCXCXCXBXr._ { [ Q ' ;.N.{.XX X+X:X>XeXeX{.` )  ...%.t.d.s.v.h.;.0.F.=X8XpXeXyXCXCXCXyXL.;.u.i.i.M.$X*X>XeX9XuXNX",
"CXCXCXCXCXCXCXCXCXCXCXCXe.{ { [ W ( q.(.OXOX%X7X7X8XeXrX{.` ) ) | X.5.p.p.j.g.q.0.).<XtXsXrXbXCXCXCXCXcXh.;.;.u.h.M.}.*X<XeXtXtX",
"CXCXCXCXCXCXCXCXCXCXCXCXR.{ } _ g I 0.c.OXOXOX7X6XrXrXwX'.) Q U ! [ X.&.y.u.8.c.1X<X8XpXsXaXVXCXCXCXCXCXzXx.;.;.w.k.'.$X*X<X9XtX",
"CXCXCXCXCXCXCXCXCXCXCXCXqX{ } K z f ( j.(.].OX-X6XrXrX6XJ._ Q m ~ /  .%.*.8.g.c.1X<XtXpXsXlXCXCXCXCXCXCXCXzXi.#.;.u.b.'.}.=X9XtX",
"CXCXCXCXCXCXCXCXCXCXCXCXvXr.} K Z c ^ 8.n.^.].-X7XrXrX6Xm.W Y m m W ) ..6.u.x.c.).<XtXsXsXlXCXCXCXCXCXCXCXCXzXi.$.;.u.b.H.}.,X9X",
"CXCXCXCXCXCXCXCXCXCXCXCXVXR.K K Z V ! &.p.v.`.@X:X6XwX*Xi.m n m v G _ ..6.z./.(.&X6XaXlXsXbXCXCXCXCXCXCXCXCXCXvXd.@.&.u.k.B.%X=X",
"CXCXCXCXCXCXCXCXCXCXCXCXCXhX>.G C Z ~ o.7.s.^.{.-X7X>XN.6.G e M v D ~  .6.d./.(.OX6X8XpXpXVXCXCXCXCXCXCXCXCXCXCXNX/.@.$.-.k.H.$X",
"CXCXCXCXCXCXCXCXCXCXCXCXCXAXe.K A C G [ %.i.m._.oX*X|.w.6.O.u 7 M Z ~ o.7.x./.OX&X6X8X8XsXCXCXCXCXCXCXCXCXCXCXCXCXMX/.@.+.;.h.J.",
"CXCXCXCXCXCXCXCXCXCXCXCXCXCX!.K F A G ! O.6.f.J.{.'.8.*.p.p.| u e x D  .7.8./.OXOX8X6X8XbXCXCXCXCXCXCXCXCXCXCXCXCXCXVX5X=.+.;.j.",
"CXCXCXCXCXCXCXCXCXCXCXCXCXCXzX2.r.A G _ ..t.p.v.v.w.w.y.f.t.t._ u e M m | 6.z./.'.|.#XtXVXCXCXCXCXCXCXCXCXCXCXCXCXCXCXCX4X&.+.q.",
"CXCXCXCXCXCXCXCXCXCXCXCXCXCXCX!.K r.K K { O.t.=.] ] w.i.m.i.t.t.%.U M c n T @.8.V.1X9XsXCXCXCXCXCXCXCXCXCXCXCXCXCXCXCXCXCXcX;.;.",
"CXCXCXCXCXCXCXCXCXCXCXCXCXCXCXMX<.l l l j u s k ] w.i.f.J.m.t.y.p.t.w.k.V.|.#X<X9XtXpXsXVXCXCXCXCXCXCXCXCXCXCXCXCXCXCXZXCXMX8.u.",
"CXCXCXCXCXCXCXCXCXCXCXCXCXCXCXCX!.K l j j j M n ] t.i.m.{.T.t.y.i.p.y.J.*XeXpXpXpXpXpXlXCXCXCXCXCXCXCXCXCXCXCXCXCXCXCXCXCXkX@.j.",
"CXCXCXCXCXCXCXCXCXCXCXCXCXCXCXCX4X<.S l l l m m  .y.i.f._._.y.t.i.i.s.m.].7X8XaXpXpXpXlXCXCXCXCXCXCXCXCXCXCXCXCXCXCXCXVXCX5X+.l.",
"CXCXCXCXCXCXCXCXCXCXCXCXCXCXCXCXqXK K A l l m G  .t.p.i._.J.p.p.f.f.v.s./.XX7XiXpXpXpXxXCXCXCXCXCXCXCXCXCXCXCXCXCXCXCXCXCXT.$.m.",
"CXCXCXCXCXCXCXCXCXCXCXCXCXCXCXCXjX<.K S A l z _ t.t.t.i.m.J.i.p.v.J.^.m.f./.oXwXiXpXtXxXCXCXCXCXCXCXCXCXCXCXCXCXCXCXCXCXnX6.;.H.",
"CXCXCXCXCXCXCXCXCXCXCXCXCXCXCXCXmXr.K S A A z K  .t.t.t.m._.f.i.m._.]._.^.m.].7XeXpXtXbXCXCXCXCXCXCXCXCXCXCXCXCXCXCXCXCXhX+.g.H."
};
